<?xml version="1.0" encoding="utf-8"?>
<!-- Generator: Adobe Illustrator 28.0.0, SVG Export Plug-In . SVG Version: 6.00 Build 0)  -->
<svg version="1.1" id="Layer_1" xmlns="http://www.w3.org/2000/svg" xmlns:xlink="http://www.w3.org/1999/xlink" x="0px" y="0px"
	 viewBox="0 0 512 512" style="enable-background:new 0 0 512 512;" xml:space="preserve">
<style type="text/css">
	.st0{fill:#6B8E23;}
	.st1{fill:#FFFFFF;}
</style>
<g id="bgnd">
	<g id="XMLID_00000044872960435546520770000015097813154494345378_">
		<path class="st0" d="M512,97.6v316.43c0,54.11-43.86,97.97-97.97,97.97H97.6C43.7,512,0,468.3,0,414.4V97.6C0,43.7,43.7,0,97.6,0
			h316.8C468.3,0,512,43.7,512,97.6z M511.5,414.03V97.6c0-53.63-43.47-97.1-97.1-97.1H97.6C43.97,0.5,0.5,43.97,0.5,97.6v316.8
			c0,53.63,43.47,97.1,97.1,97.1h316.43C467.86,511.5,511.5,467.86,511.5,414.03z"/>
		<path class="st0" d="M511.5,97.6v316.43c0,53.83-43.64,97.47-97.47,97.47H97.6c-53.63,0-97.1-43.47-97.1-97.1V97.6
			c0-53.63,43.47-97.1,97.1-97.1h316.8C468.03,0.5,511.5,43.97,511.5,97.6z M511,414.03V97.6C511,44.25,467.75,1,414.4,1H97.6
			C44.25,1,1,44.25,1,97.6v316.8C1,467.75,44.25,511,97.6,511h316.43C467.59,511,511,467.59,511,414.03z"/>
		<path class="st0" d="M511,97.6v316.43c0,53.55-43.41,96.97-96.97,96.97H97.6C44.25,511,1,467.75,1,414.4V97.6
			C1,44.25,44.25,1,97.6,1h316.8C467.75,1,511,44.25,511,97.6z"/>
	</g>
</g>
<g id="icon">
	<g id="XMLID_00000085236945697132082130000004979827666349706645_">
		<path class="st0" d="M507.6,183.73c12.57,38.23-15.55,45.33-29.21,46.2c-0.82,0.05-1.53,0.6-1.84,1.38l-2.97,7.94
			c-0.06,0.13-0.09,0.27-0.12,0.41c-4.38,25.58,1.99,59.23,4.63,81.89c3.36,28.9,6.53,56.2-8.45,78.82
			c-41.72,62.99-179.87,45.28-206.4,41.14c-0.65-0.1-1.3,0.12-1.76,0.59c-25.81,25.48-78.3,44.64-182.44,44.64
			c-9.36,0-34.95-0.99-44.55-1.36c-1.15-0.04-16.76-19.68-16.76-20.84l2.31-316.47c-0.05-0.39-0.07-0.78-0.07-1.17l1.65-102.05
			c0.02-4.99,13.22-19.02,18.1-19.71c2.19-0.31,43.73-6.42,100.76,6.22c27.12,6.01,50.68,15.17,70.49,27.46
			c0.57,0.35,1.25,0.4,1.88,0.17c5.29-2.01,12.85-2.98,17.82-3.5c233.55-24.32,251.7,79.97,252.94,101.92
			c0.04,0.68,0.41,1.3,0.97,1.66c9.81,6.34,17.59,14.02,22.5,23.27l0.05-0.02c0.03,0.1,0.06,0.21,0.1,0.3
			c0.18,0.34,0.36,0.68,0.53,1.03L507.6,183.73z M488.77,207.24c3.51-3.42,4.56-8.59,2.26-16.25c-0.05-0.19-0.13-0.35-0.22-0.53
			c-1.77-3.02-4-5.82-6.64-8.43c-13.69-13.5-38.43-21.64-66.15-26.44c-2.92-0.51-5.86-0.98-8.85-1.41
			c-1.98-0.28-3.97-0.56-5.97-0.82c-1.9-0.24-3.8-0.48-5.71-0.69c-1.1-0.13-2.22-0.24-3.34-0.37c-2.94-0.32-5.88-0.61-8.84-0.87
			c-31.27-2.74-62.43-2.47-83.2-1.75c-1,0.03-1.96,0.07-2.91,0.11c-1.42,0.05-2.78,0.11-4.08,0.17c-0.45,0.03-0.9,0.05-1.34,0.06
			c-4.18,0.19-7.68,0.38-10.38,0.55c-0.5,0.03-0.94,0.23-1.28,0.56c-0.1,0.08-0.19,0.18-0.26,0.28c-0.04,0.06-0.08,0.12-0.12,0.18
			c-0.07,0.11-0.13,0.22-0.18,0.34c-0.16,0.41-0.2,0.87-0.08,1.34c0.52,2,1.01,4.04,1.46,6.1c0.01,0.04,0.01,0.08,0.02,0.12
			c0.09,0.52,0.72,4.53,1.04,6.51c0.09,0.51,0.34,0.96,0.73,1.29c0.13,0.11,0.26,0.21,0.42,0.28c7.9,3.92,20.92,9.87,27.65,17.24
			c0,0-0.01,0,0,0.01c0.49,0.54,0.96,1.09,1.39,1.65c0.63,0.84,1.17,1.7,1.62,2.58c0.05,0.09,0.09,0.2,0.13,0.3
			c7.66,20.89,5.23,33.69-2.34,41.28c-2.1,2.1-4.58,3.8-7.36,5.17c-6.25,3.06-13.95,4.41-21.91,4.74c-0.55,0.03-1.05,0.26-1.4,0.64
			c-0.36,0.36-0.59,0.86-0.62,1.41l-1.12,19.88c-0.01,0.08-0.02,0.16-0.03,0.22c-3.39,19.73,0.64,52.67,2.37,76.42
			c0.11,1.42,0.23,2.88,0.38,4.4c0.15,1.51,0.32,3.07,0.5,4.66c0,0.01,0,0.01,0,0.01c0.18,1.6,0.37,3.25,0.57,4.92
			c0,0.01,0,0.01,0,0.01c0.28,2.52,0.58,5.13,0.85,7.8c0,0.01,0,0.01,0,0.01c0.93,9.25,1.57,19.32,0.74,29.62
			c-0.11,1.26-0.22,2.51-0.37,3.77c-0.06,0.48-0.12,0.95-0.18,1.43c-0.1,0.71-0.21,1.44-0.31,2.16c-0.28,1.84-0.63,3.68-1.03,5.51
			c-0.17,0.75-0.34,1.51-0.52,2.25c-0.24,0.97-0.5,1.93-0.77,2.88c-0.17,0.59-0.34,1.17-0.53,1.76c-0.08,0.26-0.16,0.53-0.24,0.79
			c-0.09,0.28-0.19,0.57-0.28,0.86c-0.97,2.92-2.13,5.84-3.51,8.71c-0.44,0.93-0.18,1.97,0.54,2.59c0.27,0.24,0.64,0.42,1.05,0.49
			c61.12,9.69,103.14,8.94,131.72,1.23c0.95-0.25,1.88-0.52,2.8-0.79c1.82-0.53,3.58-1.09,5.28-1.69c0.43-0.16,0.85-0.3,1.28-0.46
			c0.83-0.29,1.65-0.61,2.46-0.93c0.82-0.32,1.62-0.65,2.41-0.99c0.78-0.32,1.54-0.65,2.31-1.01c0,0,0,0,0.01-0.01
			c1.13-0.51,2.24-1.05,3.31-1.59c0.36-0.19,0.72-0.38,1.08-0.57c0.66-0.34,1.33-0.7,1.97-1.07c0.44-0.25,0.87-0.51,1.3-0.76
			c0.28-0.16,0.55-0.32,0.82-0.49c4.92-2.99,9.14-6.32,12.75-9.95c39.07-39.3,6.66-113.65,9.64-158.14
			c0.01-0.05,0.01-0.11,0.02-0.16l2.13-15.95c0.16-1.19-0.68-2.29-1.88-2.43c-22.8-2.52-38.69-1.55-49.47,1.95
			c-0.33,0.11-0.65,0.22-0.99,0.33c-1.29,0.44-2.5,0.93-3.65,1.46c-3.42,1.57-6.2,3.48-8.4,5.66c-0.56,0.54-1.08,1.1-1.55,1.69
			c-0.17,0.2-0.32,0.39-0.48,0.59c-0.3,0.39-0.6,0.79-0.86,1.2c0,0-0.01,0-0.01,0.01c-0.69,1.02-1.29,2.07-1.8,3.18l-0.01,0.01
			c-1.65,3.54-2.45,7.49-2.61,11.74c-0.05,1.16,0.83,2.17,1.98,2.25l11.35,0.79c0.06,0,0.13,0.01,0.2,0.02
			c23.34,3.76,27.74,9.48,38.2,19.82c0,0.01-0.01,0.02-0.02,0.03c-0.18,0.19-2,1.37-2.2,1.39c-14.36-6.7-29.89-10.36-45.64-10.73
			c-0.1,0-0.2,0-0.3,0.02c-0.27,0.03-0.53,0.12-0.76,0.24c-0.06,0.03-0.12,0.07-0.18,0.11c-0.01,0.01-0.02,0.01-0.02,0.01
			c-0.67,0.48-1.06,1.35-0.86,2.25c6.26,28.96,26.07,63.84,10.69,79.17c-3.14,3.12-7.72,5.42-14.17,6.72
			c-12.32,2.45-31.43,1.17-60.18-5.31c-1.23-0.27-1.95-1.56-1.55-2.79l0.66-2.02c0.07-0.22,0.18-0.42,0.29-0.6l0.01-0.01
			c0.07-0.09,0.15-0.18,0.22-0.24c0.23-0.23,0.52-0.4,0.82-0.5c0.31-0.11,0.66-0.14,1.01-0.08c19.58,3.36,33.05,3.86,42.05,2.05
			c5.28-1.06,9.02-2.91,11.55-5.44c15.88-15.83-15.4-58.35-12.77-100.47c0.65-10.63-9.9-17.88-4.99-22.44
			c0.13-0.13,0.26-0.24,0.42-0.36C393.5,198.51,471.38,224.32,488.77,207.24z M458.11,145.67c1.41,0,2.52-1.43,1.99-2.89
			c-6.13-17.02-15.12-30.59-26.08-41.38c-4.51-4.44-9.35-8.4-14.47-11.92c-0.74-0.51-1.48-1.01-2.22-1.5
			c-2.22-1.46-4.49-2.84-6.8-4.14c-0.78-0.43-1.55-0.86-2.34-1.29c-1.55-0.83-3.14-1.63-4.73-2.4c-0.01,0-0.01-0.01-0.01-0.01
			c-1.59-0.77-3.21-1.51-4.83-2.21c-0.01,0-0.01-0.01-0.01-0.01c-1.62-0.71-3.26-1.39-4.93-2.03l-0.01-0.01
			c-1.65-0.65-3.32-1.27-5-1.85c-0.01-0.01-0.01-0.01-0.01-0.01c-54.01-18.95-120.78-8.38-151.71-1.64
			c-0.4,0.09-0.73,0.27-0.99,0.53c-0.86,0.8-0.95,2.27,0.04,3.16v0.01c3.15,2.83,6.15,5.78,9.02,8.84c0.47,0.52,0.95,1.04,1.43,1.55
			c0.94,1.04,1.86,2.07,2.78,3.13c10.45,12.19,18.85,26.05,25.09,41.59c0.08,0.2,0.19,0.38,0.32,0.54c-0.01,0.01,0,0.01,0,0.01
			c0.42,0.54,1.09,0.84,1.8,0.78c14.61-1.2,57.98-4.12,103.79-0.76c1.83,0.14,3.66,0.27,5.48,0.44c2.08,0.17,4.17,0.36,6.27,0.57
			c4.44,0.43,8.88,0.93,13.29,1.5c4.83,0.63,9.63,1.33,14.37,2.14c0.5,0.08,0.98,0.17,1.47,0.25c4.67,0.8,9.3,1.71,13.82,2.73
			c0.57,0.13,1.13,0.25,1.7,0.38c7.2,1.65,14.18,3.58,20.8,5.81C457.66,145.64,457.89,145.67,458.11,145.67z M294.85,216.44
			c5.44-5.45,3.84-15.2,2.84-19.31c-0.05-0.23-0.15-0.45-0.27-0.65c-1.27-1.91-2.86-3.89-4.34-5.36c-0.22-0.22-0.44-0.43-0.66-0.63
			c-0.11-0.1-0.22-0.2-0.32-0.28c-2.98-2.53-6.39-4.97-10.2-7.29c-1.08-0.66-2.19-1.31-3.33-1.95c-0.01,0-0.01-0.01-0.01-0.01
			c-1.14-0.64-2.32-1.27-3.52-1.9c-3.21-1.66-6.61-3.25-10.21-4.78c-1.15-0.5-2.33-0.98-3.52-1.45c-0.7-0.28-1.42-0.57-2.14-0.85
			c-1.43-0.55-2.88-1.08-4.36-1.61c-1.49-0.53-2.99-1.05-4.53-1.55c-7.49-2.5-15.55-4.76-24.11-6.76c-0.4-0.1-0.81-0.2-1.22-0.28
			c-1.36-0.32-2.74-0.63-4.13-0.93c-0.38-0.08-0.77-0.17-1.16-0.24c-3.24-0.7-6.54-1.36-9.9-1.97c-1.27-0.23-2.54-0.47-3.83-0.69
			c-1.56-0.27-3.15-0.54-4.74-0.8c-0.31-0.05-0.62-0.1-0.93-0.15c-2.59-0.42-5.21-0.81-7.86-1.19c-0.28-0.04-0.56-0.08-0.83-0.12
			c-1.71-0.23-3.42-0.47-5.15-0.68c-0.25-0.03-0.51-0.07-0.76-0.1c-1.75-0.22-3.52-0.44-5.29-0.65c-5.25-0.6-10.59-1.12-16-1.56
			c-1.92-0.17-3.85-0.31-5.79-0.44c-4.33-0.3-8.7-0.56-13.1-0.77c-3.13-0.15-6.27-0.26-9.42-0.35c-0.06,0.01-0.13,0-0.19,0
			c-1.06-0.04-2.11-0.07-3.17-0.09c-35.12-0.79-59.47-0.23-75.79,0.74c-0.31,0.02-0.62,0.04-0.93,0.06
			c-0.67,0.04-1.33,0.08-1.97,0.13c-1.73,0.12-3.35,0.23-4.89,0.35c-0.59,0.05-1.15,0.1-1.71,0.15c-0.22,0.02-0.43,0.04-0.65,0.06
			c-0.97,0.08-1.88,0.17-2.76,0.25c-3.38,0.33-6.15,0.68-8.38,1.02c-0.4,0.05-0.78,0.11-1.14,0.17c-0.47,0.08-0.91,0.16-1.32,0.22
			c-0.38,0.07-0.73,0.14-1.08,0.21c-2.85,0.56-4.09,1.03-4.09,1.27l-0.35,317.19c-0.01,1.17,13.33-0.38,14.5-0.36
			c10.96,0.15,61.98,1,87.41-1.8c49.17-5.41,78.74-15.55,80.22-16.06c0.04-0.01,0.08-0.03,0.12-0.05
			c23.89-10.27,37.39-23.04,44.28-32.99c0.15-0.23,0.31-0.47,0.48-0.71c1.8-2.68,3.12-5.13,4.01-7.26c0.53-1.25,0.92-2.39,1.18-3.38
			c0.51-1.91,0.97-3.83,1.38-5.76c0.42-1.92,0.78-3.83,1.11-5.75c0.01-0.02,0.01-0.03,0.01-0.05c4.4-25.48,2-50.78,1.44-58.09
			c-1.59-20.51,3.15-63.06,6.49-89.16c0.17-1.22,0.31-2.4,0.47-3.55c0.1-0.74,0.2-1.47,0.28-2.17c0.15-1.08,0.28-2.12,0.41-3.11
			c0.01-0.01,0.01-0.03,0.01-0.04c0.16-1.22-0.72-2.31-1.93-2.4c-7.35-0.64-14.29-1.78-19.8-2.88
			c-10.94-2.18-80.13-10.92-95.97,0.96c-0.27,0.21-0.49,0.51-0.66,0.89c-0.22,0.46-0.36,1.04-0.45,1.7
			c-0.02,0.12-0.04,0.23-0.04,0.35c-0.72,6.9,4.02,22.5,5.06,22.51c5.52,0.05,36.5-2.64,49.21-0.06
			c13.54,2.75,24.47,9.6,30.94,16.18c0.43,0.43,0.64,0.99,0.64,1.54c0,0.16-0.02,0.31-0.05,0.47c-0.01,0.02-0.01,0.05-0.02,0.07
			c-0.02,0.07-0.04,0.15-0.07,0.22s-0.06,0.14-0.09,0.2c-0.04,0.08-0.09,0.16-0.13,0.22c-0.16,0.22-0.34,0.41-0.58,0.57
			c-0.57,0.38-1.27,0.48-1.91,0.23c-11.75-4.32-15.37-7.71-33.68-9.68c-5.11-0.54-10.9-1.01-19.33-0.12l-14.16,1.86
			c-1.17,0.14-4.54,0.61-4.88,1.64c-0.01,0.03-0.01,0.06-0.02,0.08c-0.02,0.1-0.02,0.19,0,0.28c6.44,26.14,37.92,58.73,34.87,86.29
			c-0.06,0.6-0.14,1.18-0.22,1.76c-0.08,0.56-0.17,1.1-0.27,1.64c-0.39,2.16-0.92,4.19-1.57,6.1c-0.37,1.07-0.78,2.09-1.22,3.09
			c-0.01,0.01-0.01,0.02-0.01,0.03c-0.3,0.65-0.62,1.29-0.94,1.92c-0.01,0.01-0.02,0.02-0.01,0.03c-0.84,1.56-1.77,3.03-2.8,4.4
			c-0.01,0-0.01,0.01-0.01,0.02c-18.05,23.94-65.33,17.29-100.33,9.93c-8.45-1.78-28.21-7.49-28.21-8.62c0-0.01,0-0.02,0.01-0.03
			c0-0.02,0.02-0.04,0.04-0.05l0.01-0.01l2.92-2.92c0-0.03,0.02-0.05,0.05-0.07c1.3-0.78,23.49,4.22,28.29,4.97
			c8.41,1.29,34.17,1.91,55.58-5.3c10.97-3.69,20.79-9.42,26.55-18.17c0.19-0.28,0.36-0.58,0.52-0.87c0.32-0.6,0.59-1.23,0.8-1.9
			c9.13-27.21-60.63-109.64-54.1-130.17c1.48-4.65,0.72-7.22-0.05-8.93c0,0,0.01,0,0-0.01c-0.52-1.17-1.05-1.94-0.83-2.68
			c0.1-0.35,0.37-0.69,0.88-1.08c0.52-0.39,1.37-0.81,2.64-1.22c0.49-0.16,1.05-0.32,1.66-0.48c0.13-0.04,0.26-0.08,0.4-0.11
			c0.25-0.06,0.52-0.12,0.79-0.19c0.28-0.07,0.58-0.13,0.88-0.19c0.3-0.06,0.63-0.13,0.95-0.19c12.53-2.34,42.53-3.81,108.31,1.17
			c0.01,0,0.83,0.09,2.22,0.24h0.01c1.23,0.15,2.91,0.33,4.9,0.56c11.65,1.32,33.52,3.81,33.52,3.81
			C287.35,220.96,292.04,219.28,294.85,216.44z M261.89,153.62c0.1-0.44,0.06-0.93-0.17-1.41c-12.8-27.84-26.81-49.37-43.33-65.95
			c-2.84-2.85-5.77-5.57-8.78-8.14c-1.2-1.04-2.41-2.04-3.64-3.02c-1.23-0.99-2.47-1.95-3.72-2.88c-0.63-0.47-1.26-0.94-1.9-1.4
			c-3.17-2.3-6.43-4.47-9.78-6.5c-0.66-0.41-1.34-0.81-2.02-1.21c-1.35-0.79-2.73-1.57-4.12-2.33c-1.38-0.75-2.79-1.5-4.2-2.21
			c-0.71-0.36-1.43-0.71-2.14-1.07c-2.16-1.06-9.47-4.25-11.07-4.9c-3.9-1.59-7.68-2.92-11.73-4.23c-2.41-0.78-4.87-1.53-7.37-2.24
			c-0.83-0.24-1.67-0.48-2.51-0.7c-10.63-2.88-17.07-5.85-41-5.62c-0.07,0-0.15,0-0.22,0c-13.62-0.04-32.42,0.91-59.92,3.44
			c-1.07,0.1-15.19,1.08-16.22,2.16c-0.02,0.01-0.03,0.03-0.04,0.05c-0.01,0.02-0.02,0.05-0.02,0.07v91.41
			c0,1.31,11.38,0.79,12.66,0.62c85.09-11.69,146.33-10.25,197.76,8.89c0,0,0,0.01,0.01,0.01c6.94,2.59,13.7,5.49,20.32,8.74
			c1.03,0.5,2.07,0.14,2.68-0.6c0.01,0,0-0.01,0-0.01c0.1-0.11,0.18-0.22,0.24-0.35c0.04-0.07,0.07-0.14,0.1-0.21
			C261.82,153.9,261.86,153.76,261.89,153.62z"/>
		<path class="st1" d="M491.02,190.99c2.31,7.64,1.25,12.81-2.25,16.25c-17.39,17.09-95.27-8.73-122.94,12.42
			c-0.16,0.12-0.29,0.23-0.42,0.36c-4.94,4.56,5.63,11.8,4.97,22.45c-2.62,42.1,28.63,84.62,12.79,100.46
			c-2.53,2.53-6.28,4.39-11.55,5.44c-9,1.8-22.46,1.29-42.03-2.06c-0.35-0.06-0.7-0.03-1.03,0.09c-0.3,0.1-0.59,0.26-0.82,0.5
			c-0.09,0.07-0.16,0.16-0.22,0.24l-0.01,0.01c-0.14,0.18-0.24,0.38-0.31,0.61l-0.66,2.02c-0.4,1.21,0.32,2.51,1.55,2.79
			c28.78,6.49,47.89,7.76,60.2,5.3c6.45-1.29,11.04-3.6,14.17-6.72c15.41-15.32-4.42-50.21-10.67-79.18
			c-0.2-0.88,0.18-1.75,0.84-2.24c0,0,0.01,0,0.02-0.01c0.06-0.04,0.12-0.07,0.18-0.11c0.23-0.13,0.49-0.22,0.76-0.24
			c0.1-0.01,0.19-0.01,0.28-0.01c15.75,0.37,31.28,4.04,45.64,10.73l0.02-0.01c0.2-0.02,2.02-1.2,2.2-1.39
			c0.03-0.02,0.04-0.03,0.04-0.04c-10.46-10.34-14.86-16.06-38.2-19.82c-0.07-0.01-0.14-0.02-0.2-0.02l-11.35-0.79
			c-1.15-0.08-2.03-1.08-1.98-2.25c0.16-4.25,0.95-8.2,2.59-11.73l0.01-0.01c0.52-1.1,1.11-2.16,1.8-3.18
			c0-0.01,0.01-0.01,0.01-0.01c0.27-0.41,0.57-0.81,0.86-1.2c0.16-0.2,0.31-0.39,0.48-0.59c0.49-0.59,1-1.14,1.55-1.69
			c2.2-2.18,4.98-4.09,8.4-5.66c1.14-0.52,2.36-1.01,3.65-1.46c0.33-0.12,0.65-0.22,0.99-0.33c10.79-3.49,26.66-4.46,49.45-1.94
			c1.19,0.14,2.03,1.23,1.88,2.43l-2.13,15.95c-0.01,0.05-0.01,0.11-0.02,0.16c-2.98,44.48,29.42,118.82-9.62,158.13
			c-3.61,3.63-7.83,6.96-12.75,9.95c-0.27,0.17-0.55,0.33-0.82,0.49c-0.43,0.25-0.86,0.51-1.3,0.76c-0.65,0.35-1.3,0.71-1.97,1.07
			c-0.36,0.19-0.72,0.38-1.08,0.57c-1.08,0.55-2.18,1.08-3.31,1.59c-0.01,0.01-0.01,0.01-0.01,0.01c-0.75,0.34-1.52,0.67-2.31,1.01
			c-0.79,0.34-1.59,0.66-2.41,0.99c-0.81,0.31-1.62,0.63-2.46,0.93c-0.43,0.16-0.85,0.3-1.28,0.46c-1.7,0.59-3.46,1.15-5.28,1.69
			c-0.92,0.27-1.85,0.54-2.8,0.79c-28.59,7.7-70.61,8.44-131.72-1.24c-0.41-0.07-0.76-0.23-1.05-0.48
			c-0.71-0.62-0.98-1.66-0.54-2.59c1.38-2.87,2.54-5.79,3.51-8.71c0.1-0.28,0.2-0.58,0.28-0.86c0.09-0.26,0.17-0.53,0.24-0.79
			c0.19-0.59,0.36-1.17,0.53-1.76c0.27-0.96,0.53-1.92,0.77-2.88c0.19-0.75,0.35-1.5,0.52-2.25c0.4-1.84,0.74-3.68,1.03-5.51
			c0.12-0.72,0.22-1.44,0.31-2.16c0.06-0.48,0.12-0.95,0.18-1.43c0.15-1.26,0.27-2.52,0.37-3.77c0.84-10.29,0.2-20.37-0.74-29.62
			c0,0,0,0,0-0.01c-0.26-2.67-0.56-5.28-0.85-7.8c0,0,0,0,0-0.01c-0.2-1.67-0.38-3.31-0.57-4.92c0,0,0,0,0-0.01
			c-0.18-1.59-0.34-3.16-0.5-4.66c-0.15-1.52-0.27-2.98-0.38-4.4c-1.73-23.75-5.76-56.69-2.37-76.42c0.01-0.07,0.02-0.15,0.03-0.22
			l1.12-19.88c0.03-0.55,0.25-1.05,0.62-1.41s0.85-0.6,1.4-0.63c7.97-0.33,15.67-1.68,21.91-4.75c2.78-1.36,5.27-3.06,7.36-5.17
			c7.57-7.59,10-20.39,2.34-41.28c-0.04-0.11-0.08-0.22-0.13-0.3c-0.45-0.88-1-1.74-1.62-2.58c-0.42-0.56-0.88-1.11-1.39-1.65
			c-0.01-0.01,0-0.01,0-0.01c-6.72-7.38-19.75-13.33-27.65-17.25c-0.16-0.08-0.29-0.17-0.42-0.27c-0.39-0.33-0.65-0.78-0.73-1.29
			c-0.31-1.98-0.95-5.99-1.04-6.51c-0.01-0.04-0.01-0.08-0.02-0.12c-0.45-2.06-0.94-4.1-1.46-6.1c-0.12-0.47-0.08-0.93,0.08-1.34
			c0.06-0.12,0.11-0.23,0.18-0.34c0.04-0.06,0.08-0.12,0.12-0.18c0.08-0.1,0.17-0.2,0.26-0.28c0.34-0.31,0.78-0.51,1.28-0.55
			c2.69-0.17,6.2-0.36,10.38-0.56c0.44-0.01,0.89-0.03,1.34-0.06c1.3-0.05,2.66-0.11,4.08-0.17c0.95-0.04,1.92-0.07,2.91-0.11
			c20.77-0.72,51.93-0.99,83.2,1.75c2.95,0.26,5.89,0.56,8.84,0.87c1.12,0.13,2.24,0.24,3.34,0.37c1.91,0.22,3.81,0.45,5.71,0.69
			c2,0.26,3.99,0.54,5.97,0.82c2.98,0.44,5.92,0.91,8.85,1.41c27.72,4.81,52.45,12.95,66.15,26.44c2.64,2.61,4.87,5.41,6.64,8.43
			C490.89,190.63,490.97,190.81,491.02,190.99z"/>
		<path class="st1" d="M460.1,142.77c0.53,1.47-0.59,2.89-1.99,2.89c-0.22,0-0.45-0.04-0.67-0.12c-6.62-2.23-13.59-4.14-20.8-5.8
			c-0.57-0.13-1.13-0.25-1.7-0.38c-4.53-1.02-9.14-1.93-13.82-2.73c-0.49-0.09-0.97-0.18-1.47-0.25c-4.74-0.81-9.54-1.52-14.37-2.14
			c-4.42-0.57-8.86-1.07-13.29-1.5c-2.09-0.22-4.18-0.4-6.27-0.57c-1.83-0.17-3.66-0.3-5.48-0.44
			c-45.81-3.37-89.17-0.45-103.79,0.75c-0.7,0.06-1.37-0.24-1.8-0.77c0,0-0.01,0,0-0.01c-0.13-0.16-0.23-0.34-0.32-0.54
			c-6.25-15.54-14.64-29.4-25.09-41.59c-0.91-1.06-1.83-2.1-2.78-3.13c-0.48-0.52-0.96-1.04-1.43-1.55
			c-2.86-3.06-5.87-6.01-9.02-8.85c-0.99-0.89-0.9-2.36-0.04-3.16c0.25-0.24,0.6-0.43,0.99-0.52c30.94-6.74,97.7-17.32,151.71,1.63
			c0,0,0,0,0.01,0.01c1.68,0.59,3.35,1.2,5,1.85l0.01,0.01c1.65,0.65,3.29,1.33,4.93,2.03c0,0,0,0.01,0.01,0.01
			c1.62,0.7,3.24,1.45,4.83,2.21c0,0,0,0.01,0.01,0.01c1.59,0.77,3.17,1.57,4.73,2.4c0.78,0.43,1.55,0.86,2.34,1.29
			c2.31,1.31,4.57,2.69,6.8,4.14c0.74,0.49,1.48,0.99,2.22,1.5c5.11,3.52,9.95,7.49,14.47,11.92
			C444.98,112.18,453.98,125.76,460.1,142.77z"/>
		<path class="st1" d="M457.44,145.55c0.22,0.08,0.46,0.12,0.67,0.12C457.89,145.67,457.66,145.64,457.44,145.55
			c-6.62-2.22-13.6-4.14-20.8-5.8C443.85,141.41,450.82,143.32,457.44,145.55z"/>
		<path class="st1" d="M441.72,278.7c0.01-0.01,0.02-0.02,0.02-0.03c-10.46-10.34-14.86-16.06-38.2-19.82
			c-0.07-0.01-0.14-0.02-0.2-0.02l-11.35-0.79c-1.15-0.08-2.03-1.08-1.98-2.25c0.16-4.25,0.96-8.2,2.61-11.74
			c-1.64,3.53-2.43,7.48-2.59,11.73c-0.05,1.16,0.83,2.17,1.98,2.25l11.35,0.79c0.06,0,0.13,0.01,0.2,0.02
			c23.34,3.76,27.74,9.48,38.2,19.82C441.76,278.67,441.75,278.68,441.72,278.7z"/>
		<path class="st1" d="M436.35,415.11c0.27-0.16,0.55-0.32,0.82-0.49C436.9,414.78,436.64,414.95,436.35,415.11z"/>
		<path class="st1" d="M433.08,416.93c0.67-0.35,1.33-0.71,1.97-1.07C434.41,416.23,433.74,416.59,433.08,416.93z"/>
		<path class="st1" d="M428.68,419.1c1.13-0.52,2.24-1.05,3.31-1.59C430.92,418.05,429.81,418.59,428.68,419.1z"/>
		<path class="st1" d="M426.36,420.11c0.78-0.33,1.55-0.66,2.31-1.01C427.91,419.46,427.14,419.79,426.36,420.11z"/>
		<path class="st1" d="M434.93,139.37c-4.53-1.02-9.15-1.93-13.82-2.73C425.79,137.45,430.41,138.36,434.93,139.37z"/>
		<path class="st1" d="M421.48,422.03c0.84-0.3,1.65-0.62,2.46-0.93C423.14,421.42,422.32,421.73,421.48,422.03z"/>
		<path class="st1" d="M414.93,424.18c1.82-0.54,3.58-1.1,5.28-1.69C418.5,423.08,416.74,423.65,414.93,424.18z"/>
		<path class="st1" d="M419.65,136.39c-4.74-0.81-9.54-1.52-14.37-2.14C410.11,134.87,414.91,135.58,419.65,136.39z"/>
		<path class="st1" d="M402.45,351.16c15.38-15.34-4.44-50.21-10.69-79.17c-0.2-0.9,0.19-1.77,0.86-2.25
			c-0.66,0.49-1.04,1.36-0.84,2.24C398.03,300.95,417.87,335.84,402.45,351.16z"/>
		<path class="st1" d="M397.33,237.37c-0.56,0.55-1.07,1.1-1.55,1.69C396.26,238.48,396.77,237.91,397.33,237.37z"/>
		<path class="st1" d="M395.3,239.65c-0.29,0.39-0.59,0.79-0.86,1.2C394.7,240.44,394.99,240.04,395.3,239.65z"/>
		<path class="st1" d="M394.43,240.86c-0.68,1.02-1.28,2.07-1.8,3.18C393.14,242.94,393.73,241.88,394.43,240.86z"/>
		<path class="st1" d="M392.82,269.62c-0.06,0.04-0.12,0.07-0.18,0.11C392.7,269.69,392.76,269.65,392.82,269.62z"/>
		<path class="st1" d="M391.98,132.76c-2.09-0.21-4.18-0.4-6.27-0.57C387.8,132.35,389.89,132.54,391.98,132.76z"/>
		<path class="st1" d="M280.41,423.73c61.11,9.68,103.13,8.94,131.72,1.24C383.55,432.68,341.53,433.42,280.41,423.73
			c-0.41-0.06-0.77-0.23-1.05-0.48C279.64,423.49,280,423.66,280.41,423.73z"/>
		<path class="st1" d="M329.58,346.32c19.57,3.35,33.03,3.86,42.03,2.06c-9,1.81-22.47,1.31-42.05-2.05
			c-0.34-0.06-0.69-0.03-1.01,0.08C328.88,346.29,329.23,346.26,329.58,346.32z"/>
		<path class="st1" d="M380.24,131.75c-45.8-3.36-89.17-0.44-103.79,0.76c-0.7,0.06-1.38-0.24-1.8-0.78
			c0.43,0.53,1.09,0.83,1.8,0.77C291.06,131.3,334.42,128.38,380.24,131.75z"/>
		<path class="st1" d="M312.8,184.82c0.51,0.54,0.97,1.09,1.39,1.65C313.76,185.91,313.29,185.35,312.8,184.82z"/>
		<path class="st1" d="M285.15,167.55c7.9,3.92,20.94,9.87,27.65,17.25C306.06,177.44,293.05,171.48,285.15,167.55
			c-0.16-0.07-0.29-0.17-0.42-0.27C284.85,167.39,284.99,167.48,285.15,167.55z"/>
		<path class="st1" d="M297.7,197.12c1,4.12,2.6,13.86-2.84,19.31C300.29,210.96,298.69,201.23,297.7,197.12
			c-0.06-0.24-0.16-0.44-0.27-0.65C297.55,196.67,297.65,196.89,297.7,197.12z"/>
		<path class="st1" d="M297.69,197.12c1,4.11,2.6,13.84-2.83,19.31c-2.82,2.84-7.51,4.53-15.13,3.7c0,0-21.87-2.49-33.52-3.81
			c-1.97-0.22-3.67-0.42-4.9-0.56h-0.01c-1.38-0.17-2.19-0.25-2.21-0.25c-65.81-4.99-95.8-3.51-108.32-1.16
			c-0.33,0.06-0.65,0.12-0.95,0.19c-0.3,0.06-0.6,0.12-0.88,0.19c-0.27,0.06-0.54,0.12-0.79,0.19c-0.14,0.03-0.27,0.07-0.4,0.11
			c-0.62,0.16-1.17,0.31-1.66,0.48c-1.27,0.41-2.12,0.83-2.64,1.22c-0.51,0.39-0.78,0.73-0.88,1.08c-0.23,0.74,0.29,1.51,0.83,2.68
			c0.01,0.01,0,0.01,0,0.01c0.76,1.71,1.52,4.28,0.04,8.94c-6.53,20.53,63.21,102.94,54.11,130.16c-0.22,0.66-0.49,1.3-0.8,1.9
			c-0.16,0.29-0.33,0.59-0.52,0.87c-5.76,8.75-15.58,14.49-26.55,18.17c-21.41,7.19-47.16,6.58-55.57,5.29
			c-4.81-0.74-27.07-5.77-28.3-4.96c-0.03,0.02-0.05,0.04-0.05,0.07l-2.92,2.92l-0.01,0.01c-0.02,0.02-0.04,0.03-0.04,0.05
			c-0.01,0.01-0.01,0.02-0.01,0.03c-0.16,1.11,19.73,6.85,28.2,8.63c35.01,7.37,82.31,14.03,100.34-9.94c0-0.01,0-0.02,0.01-0.02
			c1.04-1.36,1.96-2.82,2.8-4.4c-0.01-0.01,0-0.02,0.01-0.03c0.33-0.63,0.65-1.26,0.94-1.92c0-0.01,0-0.02,0.01-0.03
			c0.45-0.99,0.85-2.02,1.22-3.09c0.65-1.91,1.18-3.94,1.57-6.1c0.1-0.54,0.2-1.08,0.27-1.64c0.09-0.58,0.17-1.16,0.22-1.76
			c0.01-0.01,0.01-0.03,0.01-0.04c3.05-27.56-28.42-60.15-34.87-86.29c-0.02-0.09-0.02-0.17-0.01-0.24
			c0.01-0.02,0.01-0.05,0.02-0.08c0.41-1.01,3.71-1.48,4.87-1.6l14.16-1.86c8.44-0.89,14.22-0.43,19.33,0.12
			c18.32,1.95,21.93,5.36,33.68,9.68c0.64,0.23,1.34,0.15,1.91-0.23c0.24-0.17,0.45-0.37,0.59-0.61c0.06-0.07,0.1-0.15,0.13-0.22
			c0.03-0.06,0.06-0.13,0.09-0.2s0.05-0.15,0.07-0.22c0.01-0.02,0.01-0.05,0.02-0.07c0.04-0.17,0.06-0.33,0.06-0.51
			c0-0.57-0.21-1.11-0.64-1.54c-6.47-6.58-17.4-13.43-30.94-16.18c-12.71-2.58-43.69,0.11-49.21,0.06
			c-1.04-0.01-5.76-15.56-5.07-22.47c0.01-0.12,0.03-0.23,0.04-0.35c0.09-0.66,0.23-1.24,0.45-1.7c0.18-0.36,0.39-0.65,0.65-0.85
			c15.83-11.88,85.03-3.14,95.97-0.96c5.51,1.1,12.45,2.25,19.8,2.88c1.2,0.1,2.08,1.19,1.93,2.4c-0.13,0.99-0.26,2.02-0.41,3.11
			c-0.1,0.7-0.2,1.43-0.28,2.17c-0.16,1.14-0.3,2.33-0.47,3.55c-3.35,26.1-8.1,68.69-6.5,89.2c0.56,7.31,2.96,32.58-1.43,58.05
			c0,0.02,0,0.03-0.01,0.05c-0.33,1.92-0.7,3.84-1.11,5.75c-0.41,1.93-0.87,3.85-1.38,5.76c-0.26,1-0.65,2.13-1.18,3.38
			c-0.9,2.13-2.22,4.58-4.01,7.26c-0.17,0.24-0.33,0.48-0.48,0.71c-6.91,9.95-20.41,22.7-44.27,32.95
			c-0.04,0.02-0.08,0.04-0.12,0.05c-1.48,0.51-31.05,10.65-80.22,16.06c-25.42,2.8-78.93,2.25-90.35,0.35
			c-2.16-0.36-10.29-3-11.54-9.01l0.33-306.33c0-0.24,1.23-0.71,4.09-1.27c0.33-0.07,0.69-0.14,1.08-0.21
			c0.41-0.07,0.85-0.15,1.32-0.22c0.36-0.05,0.74-0.11,1.14-0.17c2.23-0.33,4.99-0.68,8.38-1.02c0.88-0.09,1.8-0.17,2.76-0.25
			c0.22-0.02,0.43-0.04,0.65-0.06c0.56-0.05,1.12-0.1,1.71-0.15c1.53-0.12,3.16-0.23,4.89-0.35c0.65-0.04,1.3-0.09,1.97-0.13
			c0.31-0.02,0.62-0.04,0.93-0.06c16.32-0.98,40.68-1.53,75.8-0.73c1.06,0.02,2.1,0.05,3.16,0.08c0.06,0,0.13,0.01,0.19,0
			c3.16,0.1,6.29,0.22,9.42,0.35c4.4,0.22,8.77,0.47,13.1,0.77c1.94,0.14,3.87,0.28,5.79,0.44c5.42,0.44,10.75,0.97,16,1.56
			c1.77,0.21,3.54,0.42,5.29,0.65c0.25,0.03,0.51,0.07,0.76,0.1c1.73,0.22,3.44,0.45,5.15,0.68c0.27,0.04,0.55,0.08,0.83,0.12
			c2.65,0.38,5.27,0.77,7.86,1.19c0.31,0.05,0.62,0.1,0.93,0.15c1.59,0.26,3.18,0.53,4.74,0.8c1.29,0.22,2.56,0.46,3.83,0.69
			c3.36,0.63,6.67,1.28,9.9,1.97c0.39,0.08,0.78,0.17,1.16,0.24c1.4,0.3,2.78,0.62,4.13,0.93c0.41,0.09,0.82,0.19,1.22,0.28
			c8.55,2,16.63,4.26,24.11,6.76c1.53,0.51,3.04,1.03,4.53,1.55c1.48,0.54,2.93,1.08,4.36,1.61c0.72,0.28,1.44,0.57,2.14,0.85
			c1.19,0.47,2.37,0.96,3.52,1.45c3.61,1.52,7.01,3.12,10.21,4.78c1.2,0.63,2.38,1.26,3.52,1.9c0,0,0,0.01,0.01,0.01
			c1.14,0.65,2.25,1.3,3.33,1.95c3.8,2.33,7.21,4.76,10.2,7.29c0.11,0.09,0.22,0.19,0.32,0.28c0.22,0.2,0.44,0.41,0.66,0.63
			c1.48,1.47,3.07,3.45,4.34,5.36C297.54,196.68,297.64,196.88,297.69,197.12z"/>
		<path class="st1" d="M285.82,360.92c0.94,9.25,1.58,19.32,0.74,29.62C287.4,380.24,286.75,370.16,285.82,360.92z"/>
		<path class="st1" d="M286.56,390.53c-0.1,1.25-0.22,2.51-0.37,3.77C286.34,393.05,286.46,391.79,286.56,390.53z"/>
		<path class="st1" d="M286.02,395.73c-0.1,0.72-0.2,1.44-0.31,2.16C285.81,397.17,285.92,396.45,286.02,395.73z"/>
		<path class="st1" d="M284.97,353.11c0.29,2.52,0.59,5.13,0.85,7.8C285.55,358.24,285.25,355.63,284.97,353.11z"/>
		<path class="st1" d="M284.4,348.18c0.19,1.6,0.37,3.25,0.57,4.92C284.78,351.43,284.58,349.78,284.4,348.18z"/>
		<path class="st1" d="M284.68,403.41c-0.17,0.75-0.33,1.5-0.52,2.25C284.34,404.91,284.51,404.16,284.68,403.41z"/>
		<path class="st1" d="M283.91,343.51c0.16,1.51,0.32,3.07,0.5,4.66C284.23,346.58,284.05,345.01,283.91,343.51z"/>
		<path class="st1" d="M283.39,408.54c-0.17,0.59-0.34,1.17-0.53,1.76C283.05,409.71,283.22,409.12,283.39,408.54z"/>
		<path class="st1" d="M282.33,411.95c0.1-0.29,0.2-0.58,0.28-0.86C282.53,411.37,282.43,411.67,282.33,411.95z"/>
		<path class="st1" d="M274.33,131.18c0.09,0.2,0.2,0.38,0.32,0.54C274.51,131.56,274.4,131.38,274.33,131.18z"/>
		<path class="st1" d="M269.51,240.13c1.2,0.1,2.08,1.18,1.93,2.4c0,0.01,0,0.03-0.01,0.04c0.16-1.21-0.72-2.31-1.93-2.4
			c-7.35-0.64-14.29-1.78-19.8-2.88c-10.94-2.18-80.13-10.92-95.97,0.96c-0.26,0.2-0.48,0.49-0.65,0.85
			c0.18-0.38,0.39-0.68,0.66-0.89c15.83-11.88,85.03-3.14,95.97-0.96C255.22,238.35,262.16,239.5,269.51,240.13z"/>
		<path class="st1" d="M271.01,245.68c-0.09,0.7-0.19,1.43-0.28,2.17C270.82,247.11,270.92,246.39,271.01,245.68z"/>
		<path class="st1" d="M263.77,340.57c0.57,7.31,2.96,32.61-1.44,58.09c4.39-25.47,1.98-50.74,1.43-58.05
			c-1.6-20.52,3.15-63.11,6.5-89.2C266.92,277.51,262.18,320.06,263.77,340.57z"/>
		<path class="st1" d="M261.73,152.22c0.22,0.48,0.26,0.97,0.17,1.41c-0.03,0.14-0.08,0.27-0.13,0.41c-0.03,0.07-0.06,0.14-0.1,0.21
			c-0.08,0.13-0.16,0.24-0.24,0.35c0,0,0.01,0.01,0,0.01c-0.62,0.73-1.66,1.08-2.68,0.59c-6.62-3.25-13.38-6.15-20.32-8.73
			c-0.01,0-0.01-0.01-0.01-0.01c-51.43-19.15-112.66-20.59-197.76-8.9c-1.27,0.19-12.53,0.68-12.66-0.6c0,0-5.89-88.31,21.16-93.7
			c24.78-4.93,42.49-3.3,55.03-3.43c0.07,0,0.15,0,0.22,0c37.87,0,70.96,16.35,73.69,17.69c0.71,0.35,1.43,0.7,2.14,1.07
			c1.42,0.71,2.82,1.46,4.2,2.21c1.39,0.76,2.77,1.53,4.12,2.33c0.68,0.4,1.36,0.8,2.02,1.21c3.35,2.04,6.62,4.2,9.78,6.5
			c0.64,0.46,1.27,0.93,1.9,1.4c1.25,0.94,2.49,1.91,3.72,2.88c1.22,0.99,2.43,1.99,3.64,3.02c3,2.57,5.92,5.29,8.78,8.14
			C234.92,102.85,248.92,124.38,261.73,152.22z"/>
		<path class="st1" d="M262.32,398.71c-0.33,1.92-0.69,3.83-1.11,5.75C261.62,402.55,261.99,400.62,262.32,398.71z"/>
		<path class="st1" d="M246.46,86.46c0.95,1.03,1.87,2.07,2.78,3.13C248.32,88.54,247.4,87.5,246.46,86.46z"/>
		<path class="st1" d="M238.07,282.49c0.04-0.07,0.09-0.15,0.13-0.22C238.17,282.35,238.13,282.43,238.07,282.49z"/>
		<path class="st1" d="M237.5,283.06c0.23-0.16,0.42-0.35,0.58-0.57c-0.14,0.23-0.34,0.44-0.59,0.61c-0.57,0.38-1.27,0.47-1.91,0.23
			c-11.75-4.32-15.37-7.72-33.68-9.68c-5.11-0.55-10.9-1.01-19.33-0.12l-14.16,1.86c-1.15,0.13-4.46,0.6-4.87,1.6
			c0.34-1.04,3.7-1.51,4.88-1.64l14.16-1.86c8.44-0.89,14.22-0.42,19.33,0.12c18.32,1.96,21.93,5.36,33.68,9.68
			C236.22,283.54,236.93,283.44,237.5,283.06z"/>
		<path class="st1" d="M236.01,76.06c3.15,2.83,6.16,5.79,9.02,8.85C242.16,81.85,239.16,78.91,236.01,76.06L236.01,76.06z"/>
		<path class="st1" d="M209.62,78.13c3.01,2.57,5.93,5.29,8.78,8.14C215.54,83.41,212.62,80.7,209.62,78.13z"/>
		<path class="st1" d="M205.98,75.1c1.22,0.98,2.43,1.98,3.64,3.02C208.42,77.1,207.2,76.09,205.98,75.1z"/>
		<path class="st1" d="M202.26,72.22c1.25,0.94,2.49,1.9,3.72,2.88C204.75,74.13,203.51,73.16,202.26,72.22z"/>
		<path class="st1" d="M197.88,367.05c0.11-0.54,0.2-1.08,0.27-1.64C198.07,365.97,197.98,366.52,197.88,367.05z"/>
		<path class="st1" d="M195.08,376.24c0.44-1,0.85-2.02,1.22-3.09C195.93,374.22,195.53,375.26,195.08,376.24z"/>
		<path class="st1" d="M194.14,378.19c0.32-0.63,0.64-1.26,0.94-1.92C194.78,376.93,194.47,377.56,194.14,378.19z"/>
		<path class="st1" d="M190.58,64.32c3.35,2.03,6.62,4.2,9.78,6.5C197.19,68.53,193.93,66.37,190.58,64.32z"/>
		<path class="st1" d="M191.33,382.62c1.03-1.37,1.95-2.83,2.8-4.4C193.29,379.79,192.37,381.26,191.33,382.62z"/>
		<path class="st1" d="M177.55,359.6c9.1-27.22-60.64-109.63-54.11-130.16c1.49-4.66,0.72-7.23-0.04-8.94
			c0.77,1.71,1.52,4.28,0.05,8.93C116.92,249.95,186.68,332.38,177.55,359.6z"/>
		<path class="st1" d="M177.55,359.6c-0.22,0.66-0.48,1.3-0.8,1.9C177.06,360.9,177.33,360.26,177.55,359.6z"/>
		<path class="st1" d="M104.4,39.82"/>
		<path class="st1" d="M191.32,382.64C173.3,406.6,126,399.95,90.98,392.58c-8.47-1.78-28.36-7.52-28.2-8.63
			c0,1.13,19.76,6.84,28.21,8.62C125.99,399.93,173.27,406.57,191.32,382.64z"/>
		<path class="st1" d="M122.56,217.81c-0.22,0.74,0.31,1.51,0.83,2.68C122.86,219.31,122.33,218.55,122.56,217.81z"/>
	</g>
</g>
</svg>
